<?xml version="1.0" encoding="UTF-8" standalone="no"?>
<!-- Created with Inkscape (http://www.inkscape.org/) -->

<svg
   width="1024"
   height="1024"
   viewBox="0 0 270.93333 270.93334"
   version="1.1"
   id="svg5"
   inkscape:version="1.1 (ce6663b3b7, 2021-05-25)"
   sodipodi:docname="github.svg"
   xmlns:inkscape="http://www.inkscape.org/namespaces/inkscape"
   xmlns:sodipodi="http://sodipodi.sourceforge.net/DTD/sodipodi-0.dtd"
   xmlns="http://www.w3.org/2000/svg"
   xmlns:svg="http://www.w3.org/2000/svg">
  <sodipodi:namedview
     id="namedview7"
     pagecolor="#070040"
     bordercolor="#666666"
     borderopacity="1.0"
     inkscape:pageshadow="2"
     inkscape:pageopacity="0"
     inkscape:pagecheckerboard="0"
     inkscape:document-units="px"
     showgrid="false"
     inkscape:zoom="0.35594254"
     inkscape:cx="510.24533"
     inkscape:cy="442.92301"
     inkscape:window-width="1600"
     inkscape:window-height="1143"
     inkscape:window-x="0"
     inkscape:window-y="0"
     inkscape:window-maximized="1"
     inkscape:current-layer="layer1"
     units="px"
     width="1024px"
     inkscape:snap-bbox="true"
     inkscape:snap-bbox-midpoints="true"
     inkscape:snap-intersection-paths="true"
     inkscape:bbox-nodes="true"
     inkscape:snap-bbox-edge-midpoints="true"
     inkscape:bbox-paths="true"
     inkscape:snap-smooth-nodes="true"
     inkscape:rotation="1" />
  <defs
     id="defs2">
    <filter
       style="color-interpolation-filters:sRGB;"
       inkscape:label="Edge Detect"
       id="filter2968"
       x="0"
       y="0"
       width="1"
       height="1">
      <feConvolveMatrix
         in="SourceGraphic"
         kernelMatrix="0 1 0 1 -4 1 0 1 0"
         order="3 3"
         bias="0"
         divisor="1"
         targetX="1"
         targetY="1"
         preserveAlpha="true"
         result="fbSourceGraphic"
         id="feConvolveMatrix2966" />
      <feColorMatrix
         result="fbSourceGraphicAlpha"
         in="fbSourceGraphic"
         values="0 0 0 -1 0 0 0 0 -1 0 0 0 0 -1 0 0 0 0 1 0"
         id="feColorMatrix2988" />
      <feConvolveMatrix
         id="feConvolveMatrix2990"
         in="fbSourceGraphic"
         kernelMatrix="0 1 0 1 -4 1 0 1 0"
         order="3 3"
         bias="0"
         divisor="1"
         targetX="1"
         targetY="1"
         preserveAlpha="true"
         result="fbSourceGraphic" />
      <feColorMatrix
         result="fbSourceGraphicAlpha"
         in="fbSourceGraphic"
         values="0 0 0 -1 0 0 0 0 -1 0 0 0 0 -1 0 0 0 0 1 0"
         id="feColorMatrix3010" />
      <feConvolveMatrix
         id="feConvolveMatrix3012"
         in="fbSourceGraphic"
         kernelMatrix="0 1 0 1 -4 1 0 1 0"
         order="3 3"
         bias="1"
         divisor="1"
         targetX="1"
         targetY="1"
         preserveAlpha="true"
         result="convolve" />
    </filter>
  </defs>
  <g
     inkscape:label="Calque 1"
     inkscape:groupmode="layer"
     id="layer1">
    <path
       style="fill:#ffffff;stroke-width:1"
       d="M 95.358002,260.36909 C 88.715696,257.903 84.58407,256.11155 79.441552,253.4678 62.158765,244.58273 47.010783,231.56402 35.363891,215.58588 15.651269,188.5425 7.2273943,155.10734 11.611768,121.31143 14.574256,98.475811 23.834465,76.384502 38.026111,58.296942 64.961431,23.967292 106.62912,6.2882814 149.20982,11.123271 c 39.20638,4.45184 73.51125,27.237382 93.95858,62.407947 1.89242,3.255024 5.83814,11.240039 7.25415,14.680271 9.90374,24.061321 12.53699,50.187741 7.62336,75.637201 -8.19572,42.44879 -37.0608,78.04832 -76.33268,94.14177 -5.19996,2.13092 -6.70493,2.60577 -8.2586,2.60577 -3.79828,0 -7.01359,-2.74375 -8.69441,-7.41928 -0.33605,-0.93482 -0.36193,-2.28481 -0.47022,-24.53313 -0.082,-16.83896 -0.18072,-23.99463 -0.34681,-25.12666 -0.36084,-2.45933 -0.94589,-4.61373 -1.68365,-6.19999 -0.37134,-0.7984 -0.64664,-1.47573 -0.61178,-1.50515 0.0349,-0.0294 0.88558,-0.20386 1.89049,-0.3876 2.91079,-0.53221 9.25206,-2.19173 12.59746,-3.29681 16.66683,-5.50545 28.90925,-14.33715 36.86879,-26.59721 4.07298,-6.2736 7.20242,-14.80651 8.3082,-22.65357 1.47541,-10.47009 0.52721,-22.74063 -2.51408,-32.53469 -2.52863,-8.14307 -7.051,-16.296263 -11.91967,-21.489444 l -0.84567,-0.902037 0.75793,-1.669985 c 0.94572,-2.083737 1.60683,-4.419663 2.16855,-7.662207 0.59325,-3.424507 0.64308,-11.217298 0.0933,-14.583941 -0.76504,-4.684432 -2.4509,-9.314243 -4.63143,-12.719071 l -0.9139,-1.42704 -1.08852,1.66e-4 c -3.20589,3.95e-4 -8.56773,0.837468 -12.21204,1.906301 -8.07758,2.369066 -16.48004,7.426476 -22.23162,13.381146 l -1.62107,1.678304 -1.55235,-0.539062 c -5.03967,-1.750067 -12.92198,-3.180754 -20.78513,-3.772631 -3.69769,-0.278334 -13.65699,-0.277831 -17.02101,7.91e-4 -8.23401,0.682149 -15.45285,2.0447 -20.62693,3.893323 l -1.87497,0.669896 -1.78183,-1.832967 C 95.386399,57.737678 85.232511,52.274728 75.452074,50.607365 c -2.286167,-0.389744 -5.461058,-0.71895 -6.933596,-0.71895 h -1.123006 l -0.773693,1.111459 c -1.047149,1.504297 -2.544836,4.555218 -3.249811,6.620159 -2.402375,7.036785 -2.600561,16.454349 -0.508604,24.168166 0.440609,1.624684 1.982117,5.22779 2.617032,6.117042 0.198653,0.278219 0.01823,0.572462 -1.213114,1.978477 C 53.680319,101.97238 48.4677,117.40836 48.977534,135.16077 c 0.216611,7.54233 1.40798,13.88388 3.788554,20.16611 7.119036,18.7868 23.746733,32.18228 47.784782,38.49599 1.79827,0.47232 4.43796,1.09387 5.866,1.38123 1.42802,0.28736 2.70103,0.5573 2.82889,0.59985 0.16149,0.0538 0.0592,0.47056 -0.33513,1.36514 -1.39845,3.17275 -2.07335,7.42784 -2.35341,14.83806 l -0.0442,1.16961 -1.3463,0.46767 c -5.684393,1.97469 -14.041042,2.03669 -20.363471,0.15113 -7.167739,-2.13768 -12.016601,-5.81375 -16.167337,-12.2569 -4.418434,-6.85874 -10.24513,-11.16564 -16.849164,-12.45437 -2.75073,-0.53677 -5.516879,-0.33959 -7.148794,0.50963 -2.220094,1.15529 -1.136147,3.38232 3.21506,6.60549 4.878495,3.61378 9.245313,9.89661 12.499877,17.98446 1.222372,3.03767 3.161966,5.98647 5.820504,8.849 5.67302,6.1083 13.369701,9.90171 22.453122,11.06637 2.285126,0.293 8.331014,0.28989 10.866526,-0.005 2.003307,-0.23344 6.123887,-0.91402 6.789727,-1.12142 0.33136,-0.10315 0.34408,0.32046 0.2869,9.55371 l -0.0598,9.66174 -0.49434,1.30967 c -1.12004,2.96733 -3.02249,5.24782 -5.30594,6.36029 -1.139232,0.55501 -1.54142,0.64522 -3.043645,0.68257 -0.952016,0.0237 -1.99059,-0.0533 -2.307932,-0.17115 z"
       id="path3100" />
  </g>
</svg>
