<?xml version="1.0" encoding="UTF-8" standalone="no"?>
<!-- Created with Inkscape (http://www.inkscape.org/) -->

<svg
   version="1.1"
   id="svg2375"
   width="1024"
   height="1024"
   viewBox="0 0 1024 1024"
   sodipodi:docname="selfy.svg"
   inkscape:version="1.1 (ce6663b3b7, 2021-05-25)"
   xmlns:inkscape="http://www.inkscape.org/namespaces/inkscape"
   xmlns:sodipodi="http://sodipodi.sourceforge.net/DTD/sodipodi-0.dtd"
   xmlns="http://www.w3.org/2000/svg"
   xmlns:svg="http://www.w3.org/2000/svg">
  <defs
     id="defs2379" />
  <sodipodi:namedview
     id="namedview2377"
     pagecolor="#000000"
     bordercolor="#666666"
     borderopacity="1.0"
     inkscape:pageshadow="2"
     inkscape:pageopacity="0"
     inkscape:pagecheckerboard="0"
     showgrid="false"
     inkscape:zoom="0.45254834"
     inkscape:cx="236.43883"
     inkscape:cy="502.70873"
     inkscape:window-width="1600"
     inkscape:window-height="1143"
     inkscape:window-x="0"
     inkscape:window-y="0"
     inkscape:window-maximized="1"
     inkscape:current-layer="g244062"
     inkscape:snap-bbox="true"
     width="1024px"
     inkscape:snap-global="false" />
  <g
     inkscape:groupmode="layer"
     inkscape:label="Image"
     id="g2381">
    <g
       id="g244062"
       transform="matrix(-0.6041943,0,0,0.6041943,1420.8954,-430.53402)"
       style="stroke-width:1.6551">
      <path
         id="path32714"
         style="fill:none;stroke:#000000;stroke-width:16.551;stroke-linecap:butt;stroke-linejoin:miter;stroke-miterlimit:4;stroke-dasharray:none;stroke-opacity:1"
         d="m 709.9753,2389.9646 v 0 c 0,0 0,0 0,0" />
      <g
         id="g2557"
         transform="matrix(0.93021192,0,0,0.93021192,6.4239242,85.452724)"
         style="stroke-width:1.77927">
        <path
           id="path244497"
           style="fill:#66cbff;fill-opacity:1;stroke:none;stroke-width:21.7071;stroke-linecap:butt;stroke-linejoin:miter;stroke-miterlimit:4;stroke-dasharray:none;stroke-opacity:1"
           d="m 1466.8828,688.25195 c -47.1434,1.10997 -93.8305,9.52124 -139.3813,21.36036 -27.546,7.11906 -54.9248,14.88279 -82.191,23.00683 -27.9858,10.57854 -55.7617,21.7476 -82.9921,34.15234 -35.0169,16.12727 -68.9872,34.89081 -99.8606,58.07789 -23.9374,18.04079 -45.8478,39.00113 -63.65665,63.17573 -18.97854,25.71187 -32.93926,55.2832 -39.6711,86.5752 -4.6247,21.68863 -5.84243,44.0947 -3.66911,66.1614 -19.34655,43.9779 -39.68021,87.5386 -57.67715,132.1075 -11.94248,29.8508 -22.6209,60.3017 -29.92909,91.6463 -1.25442,5.6712 -2.72613,11.3312 -3.10222,17.1491 -0.81173,10.5949 0.83661,21.3206 4.46741,31.2905 2.85891,9.0088 6.43661,17.7844 10.59652,26.2695 -36.66102,39.8475 -73.32036,79.6965 -109.98243,119.543 -4.51271,18.0305 -8.24431,36.4251 -8.44103,55.078 -0.48899,29.1802 8.38372,58.3684 24.72088,82.522 11.92201,17.7851 27.83122,32.6447 45.46233,44.6741 4.26109,2.9274 8.62182,5.7086 13.06642,8.3489 -0.0766,6.5366 0.51196,13.0706 1.62425,19.5091 0.88334,7.1449 1.93707,14.2884 3.80415,21.2519 0.27489,0.6834 0.22937,1.3765 0.0189,2.0691 -1.77073,8.957 -2.55592,18.0683 -3.38163,27.1496 -0.83981,14.2833 1.90381,28.5238 5.97688,42.1566 2.42588,8.136 5.51176,16.0754 9.22702,23.7094 -7.9355,29.1312 -8.41131,60.1391 -2.17305,89.6378 6.42341,31.3035 19.75474,61.1529 38.65417,86.9115 14.64969,19.7591 32.85929,36.7219 52.91292,50.8956 18.06093,13.0553 39.6339,26.0219 59.65801,35.7663 24.2549,11.8033 53.4273,3.0095 77.7956,15.5701 0.3996,0.1416 1.3722,0.4761 1.7754,0.6113 13.2182,4.6211 25.7269,11.1494 37.3019,19.0089 2.7591,1.8575 5.4696,3.7874 8.1356,5.7763 -2.0988,12.0665 -5.6093,23.7357 -8.4852,35.6146 -3.3817,13.4364 -6.8225,26.9399 -8.1126,40.771 -1.5255,19.4601 2.9351,39.5084 13.3844,56.072 7.0692,11.2489 16.4983,20.7388 26.0284,29.8967 17.7456,16.6631 38.8026,29.607 61.2326,38.951 24.0958,9.9613 50.1197,14.9956 76.1584,15.4888 32.1574,0.6246 64.1387,-5.2043 94.8737,-14.3482 31.3021,-9.2706 61.3763,-22.1212 91.2314,-35.2141 15.1922,-6.6855 30.4065,-13.3267 45.6961,-19.7889 40.8397,-17.3561 81.7968,-34.3333 123.072,-50.6291 24.309,-9.5249 48.6762,-18.934 73.4107,-27.3066 18.2623,-6.0946 36.7812,-11.3794 55.2968,-16.6405 30.8656,-8.7163 61.8861,-16.871 92.9261,-24.939 13.7583,13.0587 28.7342,24.7397 43.6968,36.3671 23.8415,18.2483 48.2429,35.7475 72.6,53.2967 42.2778,30.3796 84.7662,60.4685 126.7753,91.2209 16.5761,12.1631 33.0617,24.4492 49.4358,36.8829 6.7175,5.1145 13.5176,10.3172 20.2375,15.5041 7.8856,6.1512 16.2441,11.7976 25.3937,15.9034 11.982,5.601 23.9872,11.133 35.9686,16.735 70.7862,32.9652 141.5735,65.9281 212.3591,98.8946 -38.2657,-84.7008 -76.4701,-169.4295 -114.7001,-254.1465 -5.7176,-11.9042 -14.2947,-22.0542 -21.8867,-32.7607 -2.6743,-3.7154 -5.3395,-7.4439 -7.9542,-11.1358 -4.2762,-6.0613 -8.5903,-12.2961 -12.6386,-18.4765 -8.9114,-13.6664 -17.2789,-27.7814 -23.5766,-42.865 -4.6428,-11.1791 -7.9267,-23.078 -8.2065,-35.2388 -0.3158,-11.3768 2.2116,-22.6068 5.5428,-33.4177 11.3352,-38.2725 20.38,-77.2658 26.0815,-116.788 5.7408,-39.6853 8.1878,-79.9062 6.2787,-119.9806 -2.3418,-48.1516 -11.151,-96.1669 -28.0102,-141.4034 -13.1569,-35.3384 -31.2653,-68.8624 -53.9411,-99.0072 -16.8827,-22.4533 -36.1666,-43.1309 -57.6145,-61.286 -10.1443,-8.5406 -20.8847,-16.4022 -32.331,-23.1139 -19.7897,-11.7239 -41.055,-20.6624 -62.4081,-29.0938 -3.3953,-1.3505 -6.7871,-2.7111 -10.1725,-4.0869 9.8936,-71.1382 12.8206,-143.2074 9.3497,-214.9348 -1.9454,-42.8274 -5.4982,-85.6747 -13.2032,-127.8856 -6.826,-37.2483 -16.9357,-73.9906 -31.5868,-108.9495 -6.6406,-16.08338 -14.6993,-31.59425 -24.2605,-46.13899 -26.2942,-41.32659 -58.8085,-78.64023 -95.8707,-110.64628 -31.671,-27.4067 -66.5893,-50.95792 -103.403,-70.88568 -59.2947,-32.09623 -123.3647,-54.74853 -188.838,-70.43805 -34.6816,-8.2897 -69.8135,-14.65398 -105.1597,-19.33267 -9.0631,-1.21527 -18.2022,-1.78105 -27.3426,-1.90213 -5.4719,-0.0696 -10.9463,-0.10694 -16.4176,0.0199 z"
           sodipodi:nodetypes="sccccccccccccccccccccccccccscccccccccccccccccccccccccccccccccccccccccccccccccss" />
        <path
           id="path48904"
           style="fill:#f2846a;fill-opacity:1;stroke:none;stroke-width:21.7071;stroke-linecap:butt;stroke-linejoin:miter;stroke-miterlimit:4;stroke-dasharray:none;stroke-opacity:1"
           d="m 1139.2694,981.29534 c -9.4312,1.55848 -18.4128,5.39997 -26.2695,10.81168 -10.6357,7.29665 -19.3872,16.94218 -27.4181,26.94538 -6.3918,7.9696 -12.3562,16.2658 -18.4224,24.4825 -1.3986,-1.0333 -2.7972,-2.0666 -4.1962,-3.0994 -20.1262,49.203 -43.4241,97.0146 -64.28382,145.9141 -10.31248,24.2452 -20.07509,48.7671 -27.90105,73.9423 -2.883,9.2947 -5.46548,18.6842 -7.64938,28.1685 3.69652,11.2307 9.76297,21.5563 16.99772,30.8612 7.44185,9.6921 16.18187,18.2619 24.45803,27.2207 0.4278,0.4748 0.859,0.9469 1.285,1.4232 -48.61113,52.8346 -97.22369,105.6678 -145.83396,158.5031 -1.46095,8.7181 -1.38744,17.8273 1.28664,26.3116 2.65077,8.6687 7.96397,16.3289 14.46476,22.5666 8.531,8.1943 18.74198,14.3605 29.09883,19.9524 15.01089,8.0279 30.61399,14.8969 45.56655,23.0405 1.62886,0.8938 3.36034,1.8469 5.01041,2.7968 -4.44855,8.7331 -7.47526,18.1357 -9.61236,27.6823 -2.26477,10.4452 -3.46053,21.2237 -2.44729,31.8994 0.74225,7.3588 2.62087,14.8304 6.90282,20.9694 2.16773,3.0975 4.98468,5.7555 8.27276,7.6338 -6.23239,7.1095 -11.05126,15.6611 -12.83291,25.0123 -1.81417,9.1333 -0.58234,18.7051 2.78766,27.3363 4.18809,10.8109 11.28563,20.2776 19.49098,28.3744 2.34462,2.3058 4.79448,4.5035 7.3278,6.5998 -8.61665,10.7262 -15.24184,23.1602 -18.59836,36.5406 -3.52667,13.7771 -3.54218,28.2957 -1.02763,42.2456 0.98573,5.4484 2.23838,10.8599 4.04362,16.0995 4.57526,13.8649 10.96543,27.2532 19.93725,38.8312 8.19123,10.7019 18.43906,19.6459 29.34453,27.4872 11.9615,8.5941 24.5924,16.1899 37.0378,24.0477 0.6184,0.4368 1.4536,0.1615 2.1695,0.2782 13.7234,0.4199 27.4185,1.906 40.8951,4.5395 1.2493,0.2625 2.7178,0.5403 4.0498,0.8346 2.0416,0.4335 3.942,0.8708 5.9919,1.3581 15.6688,3.7716 30.9398,9.1608 45.546,15.9673 1.55,0.7291 3.2784,1.5473 4.8824,2.3404 3.6533,1.7975 7.3057,3.6984 10.8144,5.6343 25.2257,13.8568 48.0637,31.6648 69.2962,51.0042 0.5744,0.5765 1.2863,1.0739 1.7775,1.6982 2.7156,12.3228 3.9522,24.9772 3.5638,37.5927 -0.052,1.5432 -0.121,3.2887 -0.2246,4.9092 -0.3507,5.8323 -1.0439,11.7047 -1.9604,17.4112 -3.6396,22.7536 -11.3013,44.7287 -15.7146,67.3707 -0.083,0.6884 -0.3791,1.4345 -0.3306,2.0875 7.8005,9.1877 17.034,17.2146 27.4954,23.2374 12.6118,7.3336 26.8547,11.635 41.3186,13.2601 18.1393,2.0668 36.5121,0.2574 54.3323,-3.3916 22.5291,-4.6579 44.335,-12.2412 65.6671,-20.7549 22.1535,-8.8521 43.7755,-18.9499 65.6735,-28.4016 28.67,-12.3307 57.4552,-24.4463 86.3009,-36.3306 33.6858,-13.8357 67.4781,-27.4277 101.5953,-40.1687 14.4413,-5.3702 28.9395,-10.5991 43.6004,-15.342 3.9465,-1.2596 8.0396,-2.553 12.0132,-3.7696 26.3732,-8.0521 52.9951,-15.3972 79.6421,-22.5999 19.1462,-5.1576 38.3232,-10.1988 57.5312,-15.1205 -10.4121,-16.3534 -20.539,-32.8947 -30.0405,-49.7961 -1.969,-3.5096 -4.0135,-7.2112 -5.9292,-10.7434 -12.6136,-23.304 -23.9565,-47.3336 -33.1455,-72.2017 -2.0954,-5.6839 -4.1432,-11.5769 -6.0025,-17.3365 -2.3774,-7.3689 -4.5752,-14.8569 -6.5104,-22.269 -0.868,-3.2938 -1.6691,-6.6079 -2.4945,-9.9687 l -4.5666,3.0646 c -6.8315,-10.1773 -13.663,-20.3547 -20.4946,-30.532 1.7955,-32.5225 3.5909,-65.045 5.3864,-97.5675 l 33.4334,-141.7222 c 8.729,-18.5929 17.3795,-37.2874 23.9182,-56.7856 5.3745,-16.0176 9.1628,-32.6842 9.8059,-49.6117 0.6012,-14.8511 -1.3113,-29.7736 -5.4265,-44.0475 -2.7475,-9.584 -6.3836,-18.9127 -10.7042,-27.8909 -6.6433,-8.1694 -12.995,-16.6635 -20.7791,-23.8086 -5.7255,-5.2027 -12.4425,-9.6217 -20.065,-11.383 -5.1136,-1.2383 -10.4518,-1.227 -15.6426,-0.5245 -14.4467,0.806 -28.8991,3.9404 -41.9225,10.3707 -11.6587,5.6825 -21.9339,13.9415 -30.6058,23.5393 -6.2718,6.8936 -11.7733,14.445 -16.9035,22.2146 -34.1242,-3.9895 -68.2483,-7.979 -102.3725,-11.9684 -42.3756,-30.8203 -84.742,-61.6538 -127.1234,-92.4656 -12.2905,-8.0763 -24.6536,-16.0511 -36.656,-24.5549 -17.1972,-12.1832 -34.0211,-25.4033 -48.8069,-40.5854 -3.9605,-4.0786 -7.7993,-8.3471 -11.3548,-12.7081 -9.3963,-11.5625 -17.4585,-24.5138 -21.6888,-38.8962 -3.3939,-11.3854 -3.9621,-23.6428 -1.2958,-35.2399 1.7893,-8.0132 25.1545,-5.0197 29.3467,-12.0638 13.5813,-10.4714 17.3037,-23.5757 30.4358,-34.6176 9.7409,-8.2606 22.4398,-21.5909 29.7743,-32.1123 5.7293,-8.1938 -3.3108,-20.6995 -1.626,-30.5875 0.2895,-1.6349 0.4838,-3.284 0.7046,-4.929 -15.5195,-5.7439 -31.3885,-10.4988 -47.4133,-14.6106 -45.3303,-11.6401 -91.7072,-18.5695 -137.1396,-29.7771 -23.2496,-5.76302 -46.2898,-12.67891 -68.2898,-22.2278 -0.184,0.0331 -0.3681,0.066 -0.552,0.099 z"
           sodipodi:nodetypes="cccccccccccccccccccccccccccccccccccccccccccccccccccccccccccccccccccccccccccccccccccccccccccc" />
        <path
           style="fill:#80200a;fill-opacity:1;stroke:none;stroke-width:1.77927px;stroke-linecap:butt;stroke-linejoin:miter;stroke-opacity:1"
           d="m 1791.2617,1582.3903 v 0 c -53.6106,20.5652 -137.7104,100.7711 -146.0432,96.8972 -19.0531,-8.8576 -57.1593,-26.5734 -57.1593,-26.5734 14.2151,21.0676 23.4388,45.6954 48.1225,59.2961 44.5211,-22.3314 74.6015,-55.1841 138.1271,-61.3673 z"
           id="path75706"
           sodipodi:nodetypes="ccscccc" />
        <path
           style="fill:#903a00;fill-opacity:1;stroke:none;stroke-width:1.77927px;stroke-linecap:butt;stroke-linejoin:miter;stroke-opacity:1"
           d="m 1445.0257,1327.9377 c 34.0639,72.8535 52.2992,148.6592 43.0657,229.5875 l 51.8853,4.0498 c 27.7139,-65.2949 67.3365,-116.2127 110.9474,-141.2132 z"
           id="path117327"
           sodipodi:nodetypes="ccccc" />
        <path
           id="path48900"
           style="fill:#3a1800;fill-opacity:1;stroke:none;stroke-width:21.7071;stroke-linecap:butt;stroke-linejoin:miter;stroke-miterlimit:4;stroke-dasharray:none;stroke-opacity:1"
           d="m 1475.6955,785.57175 c -33.5325,0.28322 -66.8322,5.51645 -99.4546,13.00837 -32.0705,7.31954 -63.6418,16.59512 -95.2693,25.5931 -4.0688,1.22688 -7.9189,2.97705 -11.8877,4.45614 -26.0909,10.18265 -52.1074,20.65228 -77.2744,32.97948 -25.0886,12.24123 -49.4783,26.16156 -71.6581,43.18366 -16.3356,12.57772 -31.4449,26.97962 -43.471,43.79179 -10.3567,14.53229 -18.26,30.97951 -21.9508,48.49527 -3.1215,14.60434 -3.3693,29.78074 -1.0052,44.51424 0.3356,2.0509 0.5166,4.1531 1.14,6.1391 0.6835,1.6279 2.2926,2.5277 3.6532,3.5212 2.0505,-0.1443 4.4088,-0.3294 5.7898,-2.0687 9.8162,-13.191 19.183,-26.8027 30.5266,-38.7629 0.9822,-1.0282 2.1163,-2.1957 3.1907,-3.2482 8.094,-7.999 17.465,-14.97611 28.1946,-18.98439 3.8831,-1.44906 7.9038,-2.54233 11.9992,-3.19174 29.6066,12.85343 61.03,20.80343 92.4835,27.64763 28.8301,6.2342 57.8505,11.49 86.6299,17.915 24.7012,5.524 49.2326,11.9541 73.0231,20.7259 0.6575,0.1215 1.0563,0.4041 0.7711,1.1066 -1.0598,9.9556 -4.6593,19.5483 -9.9656,28.0081 -5.2211,8.3861 -11.9653,15.8233 -19.0651,22.569 -11.3882,10.7123 -23.8274,20.1009 -36.2651,29.5525 -4.5629,3.4695 -9.1538,6.9064 -13.6648,10.441 -1.1146,1.1209 -1.6389,2.6012 -2.442,3.929 -5.7038,10.6024 -9.1579,22.5716 -8.9459,34.6673 0.1619,12.9889 4.148,25.7119 10.2898,37.0809 7.3467,13.7455 17.4488,25.8151 28.4273,36.7962 15.0739,14.9741 31.9853,27.9528 49.3584,40.1279 11.1096,7.7399 22.4774,15.0988 33.7512,22.5942 7.9963,5.7347 15.9201,11.5694 23.8895,17.3417 34.3171,24.9632 68.6344,49.9258 102.9513,74.8893 34.1303,3.9891 68.2605,7.979 102.3908,11.9684 7.4814,-11.1345 15.7486,-21.8787 25.8522,-30.7756 9.695,-8.6414 21.0539,-15.4524 33.3636,-19.6356 3.2411,-1.1083 6.7226,-2.1078 9.9177,-2.851 5.306,-1.2454 10.8848,-2.0916 16.3903,-2.5686 4.7577,-0.3269 9.5289,-1.0847 14.3027,-0.5524 5.3467,0.5325 10.5414,2.2632 15.2443,4.8412 0.5396,0.2942 1.3215,0.7411 1.9387,1.1267 1.4886,0.9142 3.1296,2.0539 4.5717,3.2109 9.0841,7.1873 16.0342,16.5585 23.2788,25.4892 0.9691,1.057 1.6255,2.3296 2.1661,3.6454 5.786,12.5446 10.2798,25.7307 12.7663,39.3366 0.1926,1.0748 0.425,2.3873 0.606,3.5575 1.3108,8.2695 1.8722,16.6583 1.6479,25.0286 -0.058,2.2216 -0.1729,4.6142 -0.3426,6.8975 -0.8036,11.1098 -2.9725,22.2503 -5.9896,33.0262 -5.6584,20.2431 -14.1495,39.5387 -22.9472,58.5792 -1.386,3.0178 -2.8974,6.0881 -4.2398,9.1675 -0.7412,1.8961 -0.9919,3.937 -1.5251,5.8957 -10.7091,45.4066 -21.4218,90.8124 -32.1287,136.2195 -1.7961,32.5255 -3.5917,65.0511 -5.3882,97.5766 9.044,13.4776 18.0882,26.9551 27.1337,40.4318 11.1787,-20.9847 22.931,-41.6247 36.1109,-61.4271 3.2105,-4.8233 6.6154,-9.771 9.9801,-14.4776 9.7024,-13.537 20.1248,-26.5872 31.6181,-38.6527 9.2027,-9.6267 19.2439,-18.7426 30.2431,-26.3954 9.0831,-6.3286 19.061,-11.7299 29.6985,-15.0982 0.5686,-0.1134 1.1662,-0.5763 1.6964,-0.1287 3.8981,1.898 7.0229,5.0027 10.0321,8.0542 6.3704,6.6938 11.7898,14.2548 16.8591,21.9095 7.2576,11.0212 13.7436,22.5446 19.5582,34.3881 1.9363,3.9742 3.8281,8.1098 5.4797,12.2664 -15.1617,46.8266 -27.3176,94.8559 -32.5025,143.8889 -3.3988,31.8163 -3.611,63.9337 -1.3342,95.8373 0.362,5.1507 0.7813,10.2972 1.2194,15.4421 5.6305,8.2366 13.1036,14.9516 20.5289,21.5225 13.0386,11.3808 26.8183,21.87 40.6197,32.3001 28.5257,21.3986 57.6345,42.0062 86.6375,62.748 50.4147,35.9789 100.9173,71.8769 150.2119,109.3949 8.5388,6.4909 17.0591,13.0866 25.5499,19.6684 1.4323,1.0249 3.1439,1.541 4.6975,2.3495 4.9125,2.2872 9.8255,4.5732 14.7372,6.8619 -2.91,-6.4026 -5.6741,-12.8697 -8.6051,-19.2622 -11.922,-16.0971 -23.8339,-32.2176 -34.8596,-48.9491 -7.5969,-11.5026 -14.8144,-23.2675 -21.2967,-35.4375 -2.1597,-4.0582 -4.3188,-8.3391 -6.2959,-12.4802 -9.0027,-18.8861 -15.9138,-38.8959 -19.0834,-59.6225 -0.6705,-4.3767 -1.1804,-8.778 -1.5324,-13.1919 -0.05,-0.7905 -0.1254,-1.8524 -0.1852,-2.7472 -0.077,-1.3195 -0.1538,-2.8609 -0.2077,-4.2665 -0.078,-2.1702 -0.1166,-4.2853 -0.1161,-6.496 0.01,-3.8495 0.1328,-7.5758 0.3854,-11.4345 0.4128,-6.2572 1.1611,-12.4911 2.2107,-18.6731 0.2169,-1.2397 0.4567,-2.5945 0.7057,-3.8558 1.5393,-8.245 3.7412,-16.3479 6.2032,-24.3607 12.6704,-42.3613 22.0605,-85.7966 26.475,-129.8245 4.176,-41.7693 3.8707,-84.1669 -3.2335,-125.607 -6.2527,-36.6797 -18.0677,-72.5656 -36.2774,-105.0826 -16.9078,-30.2818 -39.3164,-57.4742 -65.7703,-79.8981 -13.8376,-11.4736 -29.9834,-19.749 -46.4552,-26.7378 -21.288,-9.0848 -43.404,-16.3841 -63.7623,-27.5318 -1.2514,-0.6838 -2.3755,-1.3216 -3.6173,-2.0293 -0.7393,-0.4289 -1.6279,-0.942 -2.3815,-1.3976 -10.9327,-6.4725 -21.1139,-14.2676 -29.9533,-23.4087 11.7368,-59.5393 18.3682,-120.0951 19.5677,-180.7741 0.559,-26.9684 0.039,-53.9525 -1.307,-80.891 -2.0624,-43.9716 -6.1084,-88.0194 -15.7208,-131.0465 -6.5002,-28.9638 -15.6057,-57.4516 -28.5714,-84.1983 -2.2902,-4.5105 -5.0522,-8.7578 -7.6714,-13.0793 -22.0292,-35.46245 -49.7618,-67.30955 -81.474,-94.43244 -34.6358,-29.67457 -73.7936,-53.82385 -115.0819,-73.07764 -48.7084,-22.7516 -100.3124,-38.89036 -152.7752,-50.35708 -27.6438,-6.03148 -55.5692,-10.74823 -83.6337,-14.32795 -6.6879,-0.32414 -13.3842,-0.45408 -20.0801,-0.40714 z" />
        <path
           style="fill:none;stroke:none;stroke-width:21.7071;stroke-linecap:butt;stroke-linejoin:miter;stroke-miterlimit:4;stroke-dasharray:none;stroke-opacity:1"
           d="m 1066.2585,1046.8229 c -34.369,83.751 -81.89206,171.9566 -98.69786,244.9862 9.09792,27.0697 30.50663,44.9554 43.31516,59.6287 l -146.5903,159.3255 c -8.574,53.4035 49.50864,65.9578 96.16389,93.0965 -12.9411,23.5418 -22.85216,76.446 3.63563,88.3498 -28.60216,30.6482 -11.78884,65.0607 16.385,87.6088 -22.57387,27.3101 -26.64088,57.6334 -17.87454,90.0461 15.63212,51.5445 43.60162,66.6166 86.89012,93.8375 79.6864,2.0931 136.2471,38.282 186.1931,84.2236 11.7054,52.4743 -6.4862,88.2874 -14.3989,129.8288 65.8736,76.7183 182.9319,11.9725 254.9355,-18.5027 0,0 147.2527,-63.67 223.6925,-88.986 49.7832,-16.4877 151.617,-42.4542 151.617,-42.4542 -35.5237,-55.8775 -66.7854,-113.5932 -82.3372,-178.0843 34.448,-64.4588 85.3953,-138.9588 142.1673,-154.3416 20.0626,3.9713 52.7423,63.2646 60.3265,84.4943 -36.0566,110.3165 -39.5773,180.2668 -33.2665,252.6708 23.6969,34.0204 190.7513,140.6356 320.777,242.371 -58.1239,-77.8352 -104.6878,-148.4261 -76.2018,-243.7162 49.2363,-161.12 46.5763,-330.0631 -72.4911,-434.2525 -43.6851,-38.2264 -106.944,-37.5039 -152.1818,-86.7963 14.8117,-73.8994 22.8042,-153.4468 19.7646,-242.1316 -2.7587,-80.488 -10.5531,-164.5075 -44.9345,-234.9323 -90.7544,-157.3815 -271.4069,-219.04649 -433.7204,-239.97548 -70.5405,-3.5233 -135.5514,15.96416 -213.807,38.30723 -75.5261,29.64774 -245.7674,91.118 -219.3614,215.39835 z"
           id="path2475"
           sodipodi:nodetypes="cccccccccccsscccccccscscccc" />
        <path
           style="fill:#b02b0a;fill-opacity:0.990735;stroke:none;stroke-width:1.77927px;stroke-linecap:butt;stroke-linejoin:miter;stroke-opacity:1"
           d="m 1025.6055,1335.9058 c 24.6636,29.1558 47.565,36.2989 71.5766,56.9479 l 32.3855,81.9546 c 28.4411,-51.7375 66.0897,-51.4029 168.3938,-90.9583 -22.8471,-25.1782 -43.3583,-44.9064 -69.7377,-63.6681 -90.0897,-33.5553 -140.8931,0.4793 -202.6182,15.7239 z"
           id="path182379"
           sodipodi:nodetypes="cccccc" />
        <path
           style="fill:#3a1800;fill-opacity:1;stroke:none;stroke-width:4.44817;stroke-linecap:butt;stroke-linejoin:miter;stroke-miterlimit:4;stroke-dasharray:none;stroke-opacity:1"
           d="m 1026.3167,1298.9024 c -7.1321,7.6249 -10.4135,33.4305 -0.7112,37.0034 41.6428,-8.6727 81.8731,-18.8443 129.4836,-21.1852 l 130.1613,18.937 c -44.7376,-18.3567 -91.1313,-33.2738 -132.8637,-57.8723 -48.8185,6.6743 -88.6765,11.543 -126.07,23.1171 z"
           id="path14092"
           sodipodi:nodetypes="cccccc" />
        <path
           id="path15312"
           style="fill:none;stroke:#000000;stroke-width:17.7927;stroke-linecap:butt;stroke-linejoin:miter;stroke-miterlimit:4;stroke-dasharray:none;stroke-opacity:1"
           d="m 1769.1876,1849.7272 v 0" />
        <path
           style="fill:#e3bbb8;fill-opacity:1;stroke:none;stroke-width:1.77927px;stroke-linecap:butt;stroke-linejoin:miter;stroke-opacity:0.619695"
           d="m 1227.8921,1396.4802 c -36.3744,14.2052 -65.0193,26.2674 -101.3591,27.0275 -45.4075,-93.4196 60.9253,-41.6483 101.3591,-27.0275 z"
           id="path40075"
           sodipodi:nodetypes="ccc" />
        <path
           style="fill:#502d16;stroke:none;stroke-width:1.77927px;stroke-linecap:butt;stroke-linejoin:miter;stroke-opacity:1"
           d="m 1134.5932,1378.096 c -6.1725,4.6454 -9.696,24.1895 0.6198,31.9815 10.3275,7.8007 19.2552,4.7421 24.2273,-0.7994 6.7065,-7.4747 7.1007,-22.1567 0.9581,-31.2114 -8.0926,-10.5979 -22.9541,-2.6489 -25.8052,0.029 -2.8511,2.678 0,2e-4 0,2e-4 z"
           id="path41554"
           sodipodi:nodetypes="ssscss" />
        <ellipse
           style="opacity:0.987109;fill:#241c1c;fill-opacity:1;fill-rule:evenodd;stroke:none;stroke-width:19.9278;stroke-linecap:round;stroke-linejoin:round;stroke-miterlimit:4;stroke-dasharray:none;stroke-opacity:0.619695;paint-order:fill markers stroke"
           id="path47836"
           cx="1147.8258"
           cy="1393.8104"
           rx="4.3131003"
           ry="3.932725" />
        <ellipse
           style="opacity:0.987109;fill:#241c1c;fill-opacity:1;fill-rule:evenodd;stroke:none;stroke-width:19.9278;stroke-linecap:round;stroke-linejoin:round;stroke-miterlimit:4;stroke-dasharray:none;stroke-opacity:0.619695;paint-order:fill markers stroke"
           id="path47860"
           cx="820.73743"
           cy="1322.0212"
           rx="2.0764697"
           ry="0.0053418428" />
        <path
           id="path48865"
           style="fill:none;stroke:#000000;stroke-width:21.7071;stroke-linecap:butt;stroke-linejoin:miter;stroke-miterlimit:4;stroke-dasharray:none;stroke-opacity:1"
           d="m 1744.6331,1358.3917 c 0.1011,-0.01 0.1868,-0.029 0.288,-0.035 l -0.3723,0.037 c 0.03,0 0.054,0 0.084,0 z" />
        <path
           id="path98582"
           style="fill:#80200a;fill-opacity:1;stroke:none;stroke-width:1.77927px;stroke-linecap:butt;stroke-linejoin:miter;stroke-opacity:1"
           d="m 1729.69,1391.3023 c -24.0525,9.5086 -41.8347,22.736 -42.8637,45.897 l -0.1798,1.6745 c 27.092,-19.1803 54.4946,-47.2149 100.7696,6.5069 -13.6389,-16.8931 -32.9419,-50.5977 -57.7261,-54.0784 z m 57.7261,54.0784 c 0.9526,1.1799 1.8795,2.2868 2.7767,3.2865 -0.9341,-1.1321 -1.8576,-2.2195 -2.7767,-3.2865 z m -110.6437,10.2722 c -2.9832,8.6288 -4.9665,16.716 -4.4492,23.4473 39.0361,16.9681 66.1775,36.5885 75.1251,60.2662 -6.8508,-20.4618 -12.0012,-39.8015 -23.4254,-60.3249 -17.5384,-1.5886 -31.681,-14.7115 -47.2505,-23.3886 z m 70.6759,83.7135 c 0.4447,1.3283 0.8738,2.6468 1.3352,3.9853 -0.384,-1.3422 -0.8376,-2.6684 -1.3352,-3.9853 z m -101.0887,-37.7065 c -16.148,15.4905 -21.4414,45.6338 -32.0377,68.6181 9.3456,-14.023 18.6394,-28.1601 29.9452,-39.8027 7.1196,-7.3316 20.5219,-4.9743 35.4653,-1.8706 -9.7016,-10.4972 -17.4948,-23.0309 -33.3728,-26.9448 z" />
        <path
           style="fill:#501305;fill-opacity:1;stroke:none;stroke-width:1.77927px;stroke-linecap:butt;stroke-linejoin:miter;stroke-opacity:1"
           d="m 934.51869,1573.0993 0.61503,2.8204 c 17.03598,11.5692 43.37683,19.8724 63.87635,27.1412 44.34733,-2.1635 54.57023,-27.1028 75.77633,-44.7115 -19.0714,12.1775 -34.6915,39.3604 -63.3519,29.8933 -24.29282,-6.7636 -67.52101,-25.6776 -76.91581,-15.1434 z"
           id="path136125"
           sodipodi:nodetypes="cccccc" />
        <path
           style="fill:#a62e2e;fill-opacity:1;stroke:none;stroke-width:1.77927px;stroke-linecap:butt;stroke-linejoin:miter;stroke-opacity:1"
           d="m 964.08502,1692.2096 c 38.77818,-3.2066 78.23598,24.5854 117.35728,37.0301 -35.551,-20.9799 -70.4921,-41.4402 -109.32646,-65.2185 -6.60197,-2.5669 -13.64737,-3.7476 -22.57167,0.9451 0.89478,9.7574 2.65238,19.3671 14.54085,27.2433 z"
           id="path157746"
           sodipodi:nodetypes="ccccc" />
        <path
           id="path158484"
           style="fill:#903a00;fill-opacity:1;stroke:none;stroke-width:1.77927px;stroke-linecap:butt;stroke-linejoin:miter;stroke-opacity:1"
           d="m 955.33273,1600.6854 c -6.63885,12.0771 -12.38681,31.8426 -12.92585,49.875 41.3007,2.2243 95.15062,23.3056 133.91872,75.5047 3.8343,18.2033 12.7668,37.7059 4.196,52.7469 -51.441,-5.3579 -92.79852,-29.6294 -135.09233,-45.9135 3.42771,16.3616 14.93184,31.7479 29.92312,43.7457 -22.57387,27.3101 -26.64025,57.6337 -17.87391,90.0464 15.63212,51.5445 45.56872,68.3054 88.85722,95.5263 79.6864,2.0931 134.2811,36.5927 184.2271,82.5342 1.2169,5.4556 1.9353,10.6334 2.5511,15.7539 l 85.5053,38.088 c 87.4617,-25.4228 139.4972,-67.1072 190.6032,-109.2187 l 54.9257,-53.156 -152.4968,-19.1613 -222.894,-38.0311 c -67.3824,0.8261 -64.056,-67.6205 -84.5902,-106.4384 -7.109,-34.544 -4.1928,-69.8236 -26.0461,-105.1766 z"
           sodipodi:nodetypes="cccccccccccccccccc" />
        <path
           id="path195920"
           style="fill:#f17c5f;fill-opacity:1;stroke:none;stroke-width:1.77927px;stroke-linecap:butt;stroke-linejoin:miter;stroke-opacity:1"
           d="m 1149.5983,1336.7544 c -25.0178,-0.2681 -58.0957,1.8602 -27.8306,4.0825 37.0043,2.717 76.184,11.3993 117.9833,28.5421 24.8337,10.1849 -45.154,-26.8869 -70.4668,-31.4728 -3.9037,-0.7073 -11.3467,-1.0624 -19.6859,-1.1518 z m -43.3332,13.4963 c -24.8509,0.3922 90.5117,18.8153 130.1132,35.1738 27.7577,11.466 -54.8062,-33.4745 -81.7164,-34.0992 l -45.5467,-1.0563 c -1.1007,-0.025 -2.0484,-0.031 -2.8501,-0.019 z" />
      </g>
    </g>
  </g>
</svg>
